<svg width="33" height="33" viewBox="0 0 33 33" fill="none" xmlns="http://www.w3.org/2000/svg">
<rect width="33" height="33" rx="4" fill="#FF4343"/>
<path fill-rule="evenodd" clip-rule="evenodd" d="M14 8L15 7H19L20 8H24C24.6 8 25 8.4 25 9C25 9.6 24.6 10 24 10H22H12H10C9.4 10 9 9.6 9 9C9 8.4 9.4 8 10 8H14ZM10 25V12H24V25C24 26.1 23.1 27 22 27H12C10.9 27 10 26.1 10 25ZM14 14C14.6 14 15 14.4 15 15V24C15 24.6 14.6 25 14 25C13.4 25 13 24.6 13 24V15C13 14.4 13.4 14 14 14ZM21 15C21 14.4 20.6 14 20 14C19.4 14 19 14.4 19 15V24C19 24.6 19.4 25 20 25C20.6 25 21 24.6 21 24V15Z" fill="white"/>
</svg>
